# Blender v2.78 (sub 0) OBJ File: ''
# www.blender.org
mtllib KingLight.mtl
o Group34294
v 0.614716 1.780271 0.395922
v 0.820442 0.021892 0.937503
v 0.939201 0.010427 0.512387
v 0.570532 0.701691 0.785242
v 0.719069 0.660349 0.717718
v 0.278439 1.924515 0.556955
v 0.519068 2.520509 0.474393
v 0.323936 1.833481 0.724574
v 0.688157 0.701908 0.556508
v 0.277302 2.024168 0.601345
v 0.355294 1.731170 0.602424
v 0.356148 2.026418 0.758967
v 0.536247 2.575482 0.637441
v 0.485480 2.987154 0.600789
v 0.646297 0.481247 0.361901
v 0.446007 1.830570 0.844037
v 0.401519 2.513881 0.703186
v 0.896038 0.253116 0.483666
v 0.347587 2.821258 0.602624
v 0.287403 1.830700 0.444645
v 0.892153 0.254115 0.720460
v 0.560550 2.577736 0.571780
v 0.707025 1.897030 0.577273
v 0.795621 0.444494 0.581055
v 0.944156 0.026973 0.738587
v 0.638321 1.951567 0.634544
v 0.612214 0.012258 0.142032
v 0.927602 0.135514 0.799515
v 0.369834 1.958111 0.462833
v 0.624915 0.996849 0.557786
v 0.555485 0.254222 1.023741
v 0.247702 0.022143 0.179900
v 0.768197 2.484277 0.606458
v 0.306224 1.832901 0.516367
v 0.687562 2.024185 0.621272
v 0.546915 2.483176 0.878724
v 0.715649 2.484070 0.444113
v 0.753841 0.508821 0.512284
v 0.277348 0.020437 1.029808
v 0.609902 1.952629 0.473615
v 0.713635 0.132379 1.033471
v 0.464702 1.897251 0.822999
v 0.641892 1.898688 0.755136
v 0.297577 0.476498 0.825137
v 0.414362 0.536099 0.869136
v 0.389537 2.538176 0.514055
v 0.539586 0.707191 0.418760
v 0.529531 0.951042 0.745057
v 0.377485 2.561132 0.636233
v 0.623158 1.834354 0.783050
v 0.601705 1.945769 0.753334
v 0.334655 1.958045 0.572360
v 0.586617 2.520986 0.680498
v 0.380624 0.133904 0.122576
v 0.434590 1.952517 0.770068
v 0.491882 0.485110 0.313237
v 0.953803 0.134556 0.445454
v 0.285829 0.703405 0.588385
v 0.583627 1.907307 0.407007
v 0.362025 2.028193 0.436036
v 0.472591 2.022322 0.800176
v 0.737174 0.480806 0.739971
v 0.610081 0.478432 0.861794
v 0.518207 2.932207 0.631264
v 0.366187 1.174449 0.544582
v 0.229413 0.252215 0.253084
v 0.412749 0.985165 0.726412
v 0.459088 2.485876 0.321186
v 0.559110 0.030083 1.080552
v 0.084118 0.136312 0.869995
v 0.318110 1.923645 0.727404
v 0.071247 0.040905 0.858593
v 0.288305 2.479968 0.395575
v 0.612841 2.029979 0.762706
v 0.227947 2.474187 0.723189
v 0.531301 2.026489 0.398223
v 0.606272 0.662142 0.836885
v 0.236483 0.435328 0.390921
v 0.329459 0.134516 1.070396
v 0.605096 2.483722 0.347441
v 0.690888 0.135377 0.154880
v 0.340389 0.662817 0.833702
v 0.616755 0.936864 0.674055
v 0.210247 2.485939 0.550412
v 0.872229 0.325302 0.787433
v 0.706424 2.486581 0.770481
v 0.357035 1.779972 0.383841
v 0.411941 1.897350 0.382819
v 0.586906 1.729833 0.538404
v 0.731622 1.830756 0.548842
v 0.374086 0.698127 0.766084
v 0.106113 0.133408 0.288421
v 0.873382 0.028035 0.317517
v 0.241171 0.660581 0.496869
v 0.754675 0.254704 0.269552
v 0.519088 0.254040 0.172945
v 0.348461 1.005720 0.645590
v 0.902619 0.329348 0.506619
v 0.222002 0.659443 0.632181
v 0.065512 0.328680 0.715266
v 0.140291 0.254373 0.853393
v 0.510370 2.561040 0.710199
v 0.617674 0.327447 1.016098
v 0.244073 1.780028 0.602772
v 0.611906 2.515823 0.561438
v 0.425764 1.104351 0.483430
v 0.557319 1.728120 0.692388
v 0.346782 2.487031 0.844150
v 0.746410 0.659684 0.551541
v 0.532706 2.923695 0.570164
v 0.124130 0.329098 0.357455
v 0.540546 1.832852 0.791033
v 0.040783 0.037737 0.412683
v 0.317323 0.253985 0.990321
v 0.402249 0.662540 0.345386
v 0.623325 2.676316 0.604475
v 0.275954 0.330127 0.975094
v 0.347675 2.678489 0.597911
v 0.221879 0.480212 0.708101
v 0.049864 0.259226 0.551026
v 0.385821 0.697905 0.425502
v 0.368197 0.329043 0.190028
v 0.629845 0.326153 0.195762
v 0.676088 1.944717 0.590169
v 0.018977 0.005931 0.637939
v 0.654337 2.023239 0.492018
v 0.315076 0.540120 0.376855
v 0.522077 0.201827 0.981553
v 0.783238 0.255026 0.903994
v 0.169696 0.444060 0.582390
v -0.002470 0.135916 0.601546
v 0.619479 2.820738 0.588737
v 0.401447 2.918792 0.586596
v 0.597585 1.726944 0.630027
v 0.485298 1.732803 0.466126
v 0.446073 1.726643 0.713050
v 0.405720 2.574253 0.590057
v 0.529982 0.203338 0.220200
v 0.630816 0.660701 0.374034
v 0.719469 1.780399 0.553445
v 0.468406 0.426720 0.930424
v 0.437038 2.799421 0.632684
v 0.188321 0.201822 0.360255
v 0.233799 0.202517 0.875999
v 0.538915 1.313236 0.489899
v 0.482410 1.832766 0.395945
v 0.829892 0.202083 0.436664
v 0.825666 0.325463 0.355339
v 0.113709 0.203239 0.660877
v 0.667925 1.833276 0.524690
v 0.829705 0.202792 0.756861
v 0.437273 2.799934 0.566977
v 0.541007 2.688629 0.599115
v 0.426522 2.689541 0.597246
v 0.532755 2.800041 0.567931
v 0.530962 2.799260 0.633421
v 0.685087 1.780371 0.734919
v 0.537302 1.830232 0.364284
v 0.276464 1.799979 0.740193
v 0.491535 1.780852 0.844604
vn 0.0268 -0.9995 0.0193
vn 0.0577 0.9687 -0.2416
vn -0.2037 0.7151 0.6686
vn -0.3943 -0.8962 -0.2032
vn -0.0151 0.9827 0.1844
vn -0.0112 -0.9999 0.0050
vn 0.4003 0.8400 0.3663
vn -0.8817 -0.1763 -0.4377
vn -0.3551 0.9012 -0.2484
vn 0.2666 -0.2414 -0.9331
vn 0.0179 -0.9958 0.0898
vn -0.5610 0.8253 0.0650
vn -0.5254 0.8296 -0.1888
vn 0.1227 0.2366 -0.9638
vn 0.3906 -0.2786 -0.8774
vn 0.0386 0.9993 0.0025
vn 0.9340 0.0787 0.3484
vn -0.3629 0.0305 -0.9313
vn 0.1297 -0.0396 -0.9908
vn 0.9595 0.0533 0.2765
vn -0.3708 0.2362 0.8982
vn -0.9953 -0.0952 0.0157
vn 0.8225 -0.1653 -0.5442
vn -0.1070 -0.3033 0.9469
vn 0.2542 -0.0981 -0.9622
vn -0.1278 0.1239 -0.9840
vn 0.2345 0.9721 0.0084
vn 0.3365 0.3211 0.8853
vn 0.0293 -0.2670 -0.9633
vn -0.0531 0.9839 -0.1707
vn -0.3387 -0.0006 -0.9409
vn -0.6634 0.7208 -0.2009
vn 0.3697 -0.8962 -0.2451
vn 0.1547 0.9877 -0.0208
vn 0.3464 0.9257 0.1520
vn 0.2273 -0.8856 0.4050
vn 0.4820 -0.2062 0.8515
vn 0.5322 0.7744 -0.3421
vn 0.5544 0.8313 0.0388
vn -0.8901 -0.4558 -0.0022
vn 0.3626 -0.9292 -0.0716
vn -0.3339 -0.1780 0.9257
vn -0.8731 -0.1829 -0.4519
vn 0.1420 -0.0460 -0.9888
vn -0.0053 0.7922 0.6103
vn 0.6499 0.0136 -0.7599
vn 0.0414 -0.4879 -0.8719
vn 0.0257 -0.8495 -0.5270
vn -0.4149 0.7946 0.4433
vn -0.7228 0.0574 -0.6887
vn -0.2129 -0.9532 -0.2145
vn -0.0895 0.9711 0.2212
vn -0.0900 0.9825 0.1630
vn -0.8447 0.2093 0.4927
vn 0.9337 0.0823 0.3484
vn -0.7713 0.0461 0.6348
vn -0.5337 0.8358 0.1285
vn 0.4786 0.8780 -0.0017
vn 0.0466 0.9969 0.0630
vn -0.2061 -0.3694 -0.9061
vn -0.1887 -0.6909 -0.6978
vn 0.0673 0.9950 -0.0737
vn -0.8723 -0.2146 0.4394
vn -0.7708 -0.4902 -0.4070
vn -0.3502 -0.9026 0.2504
vn -0.2972 0.9384 0.1765
vn -0.9657 -0.0912 0.2432
vn 0.8356 -0.2338 0.4971
vn -0.7361 0.2933 -0.6101
vn -0.7446 0.1888 0.6403
vn 0.5310 0.7967 0.2886
vn -0.4015 0.8872 0.2271
vn 0.0981 0.7157 0.6915
vn -0.1622 -0.2642 0.9507
vn 0.5842 0.7474 -0.3164
vn 0.9791 0.1720 0.1084
vn -0.2282 -0.6351 0.7379
vn -0.0067 0.9995 0.0312
vn -0.6735 0.7373 0.0517
vn 0.6099 -0.7925 0.0021
vn 0.1823 0.9817 0.0549
vn -0.1907 -0.8354 0.5155
vn -0.1397 0.9112 0.3875
vn -0.1062 -0.3509 -0.9304
vn -0.0939 0.5658 0.8192
vn 0.7889 -0.5986 0.1392
vn 0.0241 0.6076 -0.7939
vn -0.6890 0.0454 -0.7233
vn 0.0444 0.8177 -0.5739
vn 0.0851 0.7725 -0.6293
vn 0.3014 0.0902 -0.9492
vn 0.1214 0.9703 0.2094
vn 0.1734 -0.1363 -0.9754
vn 0.7236 -0.4945 -0.4814
vn 0.5895 0.8023 0.0938
vn 0.0708 0.7152 0.6954
vn 0.7990 0.1089 -0.5914
vn 0.9966 0.0292 0.0765
vn -0.6207 0.6605 0.4224
vn -0.9478 0.0913 0.3056
vn 0.8885 0.0414 0.4570
vn 0.1926 0.5504 0.8124
vn 0.0770 0.1355 0.9878
vn -0.9883 -0.0588 -0.1405
vn -0.7763 0.0447 0.6288
vn -0.5976 0.3514 -0.7207
vn 0.5751 0.5744 -0.5825
vn 0.7205 0.2382 -0.6512
vn 0.6818 0.1573 0.7144
vn -0.0730 0.9068 -0.4152
vn -0.4335 0.8686 0.2401
vn -0.5347 0.3261 -0.7796
vn 0.8230 0.5556 0.1179
vn 0.8395 0.0505 0.5411
vn 0.8093 -0.0120 -0.5873
vn 0.2470 0.9086 -0.3369
vn 0.2872 -0.8690 -0.4029
vn -0.5530 -0.0618 0.8309
vn -0.4045 0.5080 0.7605
vn 0.8076 -0.2440 -0.5369
vn -0.4444 -0.6169 -0.6495
vn 0.8247 0.1801 -0.5361
vn -0.9868 -0.1331 0.0920
vn 0.0631 0.7652 -0.6407
vn -0.2931 -0.8441 0.4491
vn 0.7096 -0.5628 0.4239
vn -0.9758 0.1782 0.1265
vn -0.6379 0.0174 0.7699
vn 0.7814 -0.4510 0.4313
vn 0.7321 0.6712 0.1159
vn -0.8038 -0.3569 -0.4760
vn 0.4049 0.8310 0.3814
vn 0.3545 -0.7646 0.5383
vn 0.4517 -0.2948 0.8421
vn -0.7203 -0.3125 -0.6193
vn -0.3413 0.0030 0.9400
vn 0.7596 0.6365 0.1339
vn 0.6339 0.0297 0.7728
vn -0.4523 0.2554 0.8545
vn -0.1692 0.9341 -0.3143
vn 0.3367 0.9254 0.1740
vn -0.5229 -0.8431 -0.1258
vn 0.1533 -0.9782 -0.1402
vn -0.1562 0.1150 -0.9810
vn -0.3909 -0.1452 -0.9089
vn 0.7735 0.6187 0.1375
vn -0.1292 0.3513 -0.9273
vn -0.9227 0.2123 -0.3217
vn 0.2494 -0.4948 0.8324
vn -0.6243 0.7396 -0.2515
vn 0.5882 0.5183 -0.6208
vn -0.6576 0.2895 -0.6955
vn -0.3079 0.1040 -0.9457
vn -0.5603 0.8086 0.1795
vn 0.2403 0.9118 0.3330
vn 0.5587 -0.1285 0.8193
vn -0.8258 0.1650 0.5393
vn 0.0239 0.9990 -0.0384
vn 0.4267 0.1092 0.8978
vn -0.6373 -0.6969 0.3288
vn 0.9596 -0.2150 0.1818
vn -0.0169 0.9998 0.0128
vn 0.2171 0.9735 -0.0715
vn -0.9432 -0.3220 0.0811
vn -0.0521 0.1459 -0.9879
vn 0.3294 -0.7106 0.6217
vn 0.9937 0.0541 0.0977
vn 0.9631 0.2057 0.1737
vn -0.4878 -0.6054 0.6289
vn 0.3072 -0.9268 0.2158
vn -0.3253 -0.0314 0.9451
vn 0.7582 0.6455 0.0914
vn 0.5800 0.0280 -0.8142
vn 0.0076 -0.9995 0.0291
vn -0.6015 0.7950 -0.0785
vn 0.6369 0.2236 0.7378
vn -0.2157 -0.1944 -0.9569
vn 0.8539 -0.4972 -0.1541
vn 0.9370 -0.1740 -0.3031
vn -0.5095 0.1737 -0.8428
vn 0.3115 0.9012 -0.3014
vn -0.7382 -0.5569 -0.3807
vn -0.0126 0.9831 0.1824
vn 0.4461 -0.2905 0.8465
vn 0.2631 -0.2032 0.9431
vn 0.8657 -0.1854 0.4650
vn -0.9733 -0.1947 -0.1217
vn 0.6497 -0.1636 -0.7424
vn -0.8899 0.1002 0.4450
vn -0.0171 0.9995 -0.0262
vn 0.3576 -0.0419 0.9329
vn -0.5167 -0.8071 0.2857
vn -0.9717 -0.0699 0.2258
vn -0.1152 0.1994 0.9731
vn -0.1381 0.1216 0.9829
vn 0.0241 0.2678 -0.9632
vn -0.4292 0.6511 -0.6259
vn -0.7263 0.3589 0.5863
vn 0.1033 0.0377 -0.9939
vn -0.2510 -0.9548 -0.1591
vn -0.6211 0.6037 0.4997
vn -0.1712 -0.1386 0.9754
vn 0.9923 -0.1236 -0.0127
vn -0.2471 0.5859 -0.7718
vn 0.3007 -0.6149 -0.7291
vn -0.2333 0.9724 0.0052
vn 0.1815 0.0600 0.9816
vn 0.5514 0.6565 -0.5147
vn 0.8891 0.0599 -0.4538
vn -0.0324 -0.9981 -0.0515
vn 0.9004 -0.2837 -0.3298
vn -0.8419 -0.4812 0.2441
vn -0.8063 0.5767 -0.1314
vn 0.3059 0.2905 0.9067
vn 0.7728 0.0748 -0.6302
vn 0.0581 0.9686 -0.2417
vn -0.8769 -0.4071 0.2557
vn -0.0100 0.0168 0.9998
vn 0.4583 0.7873 -0.4125
vn 0.8859 0.4485 -0.1186
vn -0.2209 0.9703 0.0990
vn -0.6030 -0.1718 0.7791
vn 0.2658 0.9639 0.0147
vn 0.1512 -0.9861 0.0688
vn 0.7936 -0.5747 -0.1998
vn 0.6258 0.3575 0.6933
vn -0.3250 0.7311 -0.5999
vn 0.6049 0.2915 -0.7410
vn -0.3737 0.8027 0.4647
vn 0.2306 0.6998 -0.6761
vn 0.5484 -0.2678 -0.7921
vn 0.5930 -0.1828 -0.7842
vn -0.4306 -0.3850 0.8164
vn 0.5038 0.6060 -0.6156
vn 0.7313 0.1246 0.6705
vn -0.3102 0.9310 -0.1923
vn 0.5947 -0.1694 -0.7859
vn -0.0695 0.9069 -0.4157
vn -0.1163 0.1394 0.9834
vn -0.1128 -0.5785 0.8078
vn 0.0823 0.3764 0.9228
vn 0.0761 0.7145 0.6954
vn -0.6730 -0.6661 0.3216
vn 0.0786 -0.9310 0.3565
vn -0.4752 0.8666 -0.1521
vn 0.0516 -0.3110 0.9490
vn -0.5253 -0.2152 0.8232
vn -0.1917 -0.8578 -0.4768
vn 0.9315 -0.1227 0.3423
vn -0.5400 0.1491 -0.8283
vn 0.9957 -0.0910 0.0167
vn 0.9574 -0.1528 -0.2450
vn 0.7542 0.5615 0.3406
vn -0.2852 0.8356 -0.4695
vn -0.1192 0.2178 -0.9687
vn 0.7702 0.3434 -0.5375
vn -0.4307 0.8701 0.2397
vn 0.5271 0.6202 0.5809
vn 0.9798 0.1187 0.1607
vn 0.4782 -0.5474 -0.6868
vn -0.7735 -0.4405 -0.4558
vn -0.1506 0.0246 0.9883
vn 0.2957 -0.8669 0.4012
vn 0.9932 0.0177 -0.1152
vn -0.0591 0.8966 0.4388
vn -0.0987 0.1493 0.9839
vn -0.9577 -0.2877 -0.0057
vn 0.1629 0.9792 -0.1210
vn -0.8841 0.3922 0.2542
vn -0.1554 0.9878 0.0105
vn 0.3650 -0.2795 -0.8881
vn -0.8452 0.5164 -0.1379
vn -0.2700 -0.9390 0.2128
vn -0.9271 0.1752 -0.3314
vn 0.8397 -0.1628 0.5181
vn -0.6982 -0.1439 0.7012
vn 0.1832 -0.9374 -0.2961
vn 0.7141 0.6218 0.3215
vn 0.5298 0.6325 0.5650
vn 0.9244 -0.1507 0.3503
vn 0.6397 -0.7685 0.0137
vn 0.9912 0.1102 0.0731
vn -0.1935 0.9773 0.0863
vn -0.3709 0.2716 0.8880
vn 0.9729 -0.0038 0.2314
vn 0.9950 0.0959 0.0284
vn 0.6752 0.1479 -0.7226
vn -0.3325 -0.2150 0.9183
vn -0.0334 0.8678 -0.4957
vn 0.4440 -0.8921 0.0840
vn -0.6864 0.0496 -0.7256
vn -0.4208 0.7949 -0.4372
vn -0.1647 0.9052 -0.3919
vn 0.7283 0.5738 -0.3746
vn -0.3916 -0.8930 0.2219
vn -0.7909 0.0309 -0.6112
vn -0.2019 0.0176 -0.9793
vn 0.0226 -0.2679 -0.9632
vn -0.9846 -0.0011 -0.1747
vn 0.0930 0.2969 0.9504
vn -0.2509 0.9580 0.1390
vn -0.6917 0.7176 0.0808
vn 0.1527 0.9721 -0.1782
vn -0.4527 0.8840 -0.1165
vn 0.7228 0.1075 0.6826
vn -0.0109 0.2634 0.9646
vn -0.3450 0.7040 0.6207
vn 0.0157 -0.7060 -0.7080
vn -0.2527 -0.2988 -0.9203
vn -0.3712 0.0427 0.9276
vn -0.9292 -0.2177 -0.2986
vn -0.6326 -0.0072 0.7744
vn 0.8350 0.4602 0.3015
vn 0.1262 -0.4246 0.8965
vn -0.8393 0.1567 -0.5205
vn 0.0367 0.8051 -0.5920
usemtl None
s off
f 27//1 39//1 125//1
f 80//2 68//2 7//2
f 141//3 44//3 117//3
f 87//4 11//4 104//4
f 17//5 36//5 53//5
f 27//6 3//6 39//6
f 77//7 5//7 4//7
f 73//8 10//8 84//8
f 121//9 94//9 58//9
f 155//10 153//10 137//10
f 39//11 2//11 69//11
f 8//12 20//12 159//12
f 92//13 131//13 143//13
f 56//14 115//14 139//14
f 152//15 110//15 154//15
f 90//16 150//16 50//16
f 13//17 22//17 153//17
f 19//18 152//18 118//18
f 135//19 145//19 106//19
f 153//20 64//20 13//20
f 64//21 133//21 142//21
f 156//22 64//22 153//22
f 148//23 18//23 95//23
f 116//24 156//24 153//24
f 132//25 116//25 155//25
f 133//26 110//26 152//26
f 142//27 152//27 19//27
f 42//28 43//28 51//28
f 152//29 154//29 118//29
f 158//30 20//30 146//30
f 127//31 115//31 56//31
f 46//32 49//32 137//32
f 89//33 1//33 140//33
f 124//34 40//34 26//34
f 124//35 26//35 51//35
f 157//36 160//36 107//36
f 160//37 157//37 50//37
f 109//38 139//38 9//38
f 28//39 57//39 151//39
f 49//40 46//40 17//40
f 134//41 89//41 140//41
f 12//42 61//42 108//42
f 60//43 10//43 73//43
f 59//44 146//44 88//44
f 4//45 82//45 77//45
f 145//46 89//46 30//46
f 87//47 158//47 1//47
f 87//48 1//48 135//48
f 8//49 159//49 16//49
f 65//50 11//50 135//50
f 11//51 87//51 135//51
f 13//52 137//52 49//52
f 13//53 49//53 102//53
f 119//54 82//54 99//54
f 22//55 13//55 102//55
f 67//56 136//56 11//56
f 52//57 6//57 71//57
f 151//58 57//58 147//58
f 26//59 55//59 51//59
f 76//60 29//60 60//60
f 96//61 138//61 66//61
f 90//62 158//62 150//62
f 10//63 12//63 75//63
f 10//64 60//64 52//64
f 159//65 11//65 136//65
f 52//66 71//66 55//66
f 125//67 72//67 131//67
f 129//68 21//68 85//68
f 88//69 6//69 29//69
f 91//70 67//70 97//70
f 102//71 53//71 22//71
f 70//72 144//72 149//72
f 55//73 42//73 51//73
f 69//74 79//74 39//74
f 98//75 148//75 24//75
f 98//76 85//76 21//76
f 8//77 112//77 42//77
f 112//78 8//78 16//78
f 159//79 20//79 104//79
f 151//80 147//80 18//80
f 33//81 105//81 86//81
f 128//82 114//82 144//82
f 79//83 128//83 144//83
f 32//84 54//84 27//84
f 117//85 103//85 141//85
f 23//86 50//86 150//86
f 123//87 122//87 56//87
f 65//88 135//88 106//88
f 59//89 29//89 40//89
f 139//90 115//90 47//90
f 56//91 139//91 15//91
f 36//92 86//92 53//92
f 80//93 76//93 68//93
f 147//94 95//94 18//94
f 5//95 109//95 9//95
f 128//96 79//96 41//96
f 15//97 139//97 38//97
f 109//98 62//98 38//98
f 100//99 44//99 119//99
f 72//100 70//100 131//100
f 83//101 4//101 9//101
f 141//102 63//102 45//102
f 77//103 45//103 63//103
f 119//104 99//104 94//104
f 67//105 11//105 97//105
f 78//106 94//106 127//106
f 105//107 7//107 22//107
f 57//108 93//108 81//108
f 63//109 62//109 5//109
f 115//110 121//110 47//110
f 58//111 99//111 82//111
f 111//112 122//112 66//112
f 14//113 64//113 110//113
f 107//114 83//114 134//114
f 59//115 23//115 150//115
f 147//116 81//116 138//116
f 138//117 95//117 147//117
f 42//118 71//118 8//118
f 42//119 55//119 71//119
f 1//120 90//120 140//120
f 88//121 146//121 34//121
f 38//122 139//122 109//122
f 75//123 84//123 10//123
f 81//124 54//124 138//124
f 159//125 136//125 160//125
f 21//126 129//126 151//126
f 97//127 65//127 58//127
f 79//128 72//128 39//128
f 74//129 26//129 35//129
f 62//130 85//130 24//130
f 120//131 66//131 143//131
f 41//132 28//132 151//132
f 74//133 55//133 26//133
f 2//134 41//134 69//134
f 32//135 113//135 92//135
f 13//136 154//136 137//136
f 38//137 62//137 24//137
f 83//138 107//138 48//138
f 44//139 141//139 45//139
f 68//140 73//140 46//140
f 4//141 5//141 9//141
f 120//142 143//142 149//142
f 93//143 3//143 27//143
f 106//144 145//144 47//144
f 60//145 73//145 68//145
f 53//146 105//146 22//146
f 110//147 133//147 14//147
f 131//148 92//148 113//148
f 55//149 74//149 61//149
f 78//150 111//150 130//150
f 158//151 90//151 1//151
f 127//152 94//152 115//152
f 78//153 127//153 56//153
f 149//154 131//154 70//154
f 128//155 41//155 151//155
f 74//156 86//156 36//156
f 82//157 119//157 44//157
f 158//158 146//158 150//158
f 132//159 156//159 116//159
f 12//160 10//160 52//160
f 90//161 157//161 140//161
f 112//162 16//162 50//162
f 33//163 37//163 105//163
f 6//164 34//164 8//164
f 106//165 47//165 121//165
f 129//166 31//166 128//166
f 89//167 83//167 30//167
f 83//168 9//168 30//168
f 114//169 101//169 144//169
f 107//170 134//170 157//170
f 142//171 19//171 118//171
f 85//172 98//172 24//172
f 145//173 135//173 89//173
f 39//174 3//174 2//174
f 94//175 99//175 58//175
f 48//176 4//176 83//176
f 76//177 60//177 68//177
f 40//178 126//178 26//178
f 37//179 33//179 35//179
f 92//180 54//180 32//180
f 139//181 47//181 9//181
f 87//182 104//182 20//182
f 36//183 17//183 108//183
f 31//184 129//184 103//184
f 61//185 74//185 36//185
f 86//186 74//186 35//186
f 131//187 113//187 125//187
f 126//188 80//188 37//188
f 91//189 97//189 58//189
f 20//190 34//190 146//190
f 112//191 43//191 42//191
f 101//192 149//192 144//192
f 71//193 6//193 8//193
f 103//194 117//194 31//194
f 31//195 117//195 114//195
f 122//196 123//196 96//196
f 78//197 122//197 111//197
f 117//198 100//198 101//198
f 54//199 81//199 27//199
f 113//200 32//200 125//200
f 100//201 117//201 44//201
f 36//202 108//202 61//202
f 3//203 57//203 25//203
f 20//204 158//204 87//204
f 96//205 95//205 138//205
f 132//206 155//206 156//206
f 48//207 107//207 136//207
f 148//208 15//208 38//208
f 18//209 148//209 98//209
f 32//210 27//210 125//210
f 93//211 57//211 3//211
f 101//212 120//212 149//212
f 111//213 100//213 130//213
f 16//214 160//214 50//214
f 30//215 47//215 145//215
f 7//216 68//216 46//216
f 101//217 100//217 120//217
f 64//218 142//218 13//218
f 57//219 81//219 147//219
f 148//220 38//220 24//220
f 17//221 84//221 108//221
f 114//222 117//222 101//222
f 105//223 53//223 86//223
f 2//224 3//224 25//224
f 26//225 126//225 35//225
f 103//226 129//226 85//226
f 122//227 78//227 56//227
f 123//228 148//228 95//228
f 70//229 79//229 144//229
f 15//230 123//230 56//230
f 81//231 93//231 27//231
f 76//232 80//232 126//232
f 159//233 160//233 16//233
f 123//234 15//234 148//234
f 41//235 2//235 28//235
f 73//236 84//236 46//236
f 40//237 76//237 126//237
f 22//238 46//238 137//238
f 48//239 67//239 4//239
f 31//240 114//240 128//240
f 43//241 112//241 50//241
f 141//242 103//242 63//242
f 12//243 52//243 55//243
f 107//244 160//244 136//244
f 6//245 52//245 29//245
f 142//246 118//246 154//246
f 142//247 154//247 13//247
f 66//248 138//248 143//248
f 23//249 43//249 50//249
f 154//250 110//250 137//250
f 98//251 21//251 18//251
f 35//252 126//252 37//252
f 90//253 50//253 157//253
f 143//254 54//254 92//254
f 153//255 22//255 137//255
f 23//256 59//256 40//256
f 58//257 82//257 91//257
f 103//258 85//258 63//258
f 109//259 5//259 62//259
f 146//260 59//260 150//260
f 120//261 111//261 66//261
f 136//262 67//262 48//262
f 151//263 129//263 128//263
f 134//264 83//264 89//264
f 91//265 82//265 4//265
f 67//266 91//266 4//266
f 133//267 152//267 142//267
f 105//268 37//268 7//268
f 119//269 94//269 130//269
f 34//270 20//270 8//270
f 96//271 123//271 95//271
f 100//272 111//272 120//272
f 39//273 72//273 125//273
f 94//274 78//274 130//274
f 28//275 2//275 25//275
f 75//276 12//276 108//276
f 135//277 1//277 89//277
f 43//278 124//278 51//278
f 85//279 62//279 63//279
f 33//280 86//280 35//280
f 21//281 151//281 18//281
f 28//282 25//282 57//282
f 108//283 84//283 75//283
f 14//284 133//284 64//284
f 155//285 110//285 64//285
f 156//286 155//286 64//286
f 47//287 30//287 9//287
f 12//288 55//288 61//288
f 7//289 46//289 22//289
f 157//290 134//290 140//290
f 65//291 106//291 58//291
f 115//292 94//292 121//292
f 138//293 54//293 143//293
f 23//294 40//294 124//294
f 104//295 11//295 159//295
f 88//296 34//296 6//296
f 110//297 155//297 137//297
f 155//298 116//298 153//298
f 11//299 65//299 97//299
f 79//300 69//300 41//300
f 84//301 17//301 46//301
f 130//302 100//302 119//302
f 80//303 7//303 37//303
f 131//304 149//304 143//304
f 63//305 5//305 77//305
f 77//306 82//306 45//306
f 49//307 17//307 102//307
f 29//308 76//308 40//308
f 122//309 96//309 66//309
f 45//310 82//310 44//310
f 60//311 29//311 52//311
f 79//312 70//312 72//312
f 124//313 43//313 23//313
f 53//314 102//314 17//314
f 58//315 106//315 121//315
f 59//316 88//316 29//316
