# Blender v2.78 (sub 0) OBJ File: ''
# www.blender.org
mtllib RookLight.mtl
o Group7299
v 0.211724 0.471503 0.529248
v 0.293660 1.570271 0.335898
v 0.426038 1.608014 0.408040
v 0.583833 1.258446 0.748160
v 0.698135 1.125049 0.427383
v 0.253586 1.057863 0.690831
v 0.259970 1.600240 0.508872
v 0.607646 1.567912 0.305255
v 0.458790 0.274816 1.048848
v 0.617509 0.610661 0.747944
v 0.045924 0.258911 0.657660
v 0.791272 0.186160 0.822252
v 0.093931 0.269746 0.387320
v 0.363082 1.089689 0.794987
v 0.395575 0.981148 0.731654
v 0.344553 0.015241 0.143710
v 0.588215 0.985372 0.487204
v 0.669092 0.196617 0.971232
v 0.697944 1.057143 0.488541
v 0.605044 1.124813 0.361282
v 0.450132 1.047175 0.855633
v 0.384577 1.250538 0.737027
v 0.833184 0.123878 0.946863
v 0.926220 0.262838 0.669526
v 0.649396 1.258995 0.666589
v 0.966201 0.017061 0.668235
v 0.811268 0.295874 0.313131
v 0.262845 1.122784 0.771131
v 0.776477 0.016977 0.982466
v 0.511720 1.119228 0.863181
v 0.703737 1.039518 0.731891
v -0.018412 0.119926 0.536548
v 0.695329 1.604994 0.639215
v 0.530942 0.090183 0.092970
v 0.590311 1.250087 0.465491
v 0.347410 0.262870 0.173231
v 0.332950 0.585146 0.783053
v 0.479025 0.118253 1.098341
v 0.768081 0.456437 0.560063
v 0.122057 0.019479 0.918674
v 0.872317 0.193192 0.483353
v 0.518082 0.488477 0.326648
v 0.601533 0.456007 0.860280
v 0.266282 1.114464 0.434543
v 0.168665 1.569535 0.641064
v 0.251224 1.041223 0.490017
v 0.859170 0.015454 0.290976
v 0.431549 0.029538 1.089405
v 0.116113 0.185419 0.513851
v 0.315403 0.455343 0.820076
v 0.455072 1.083712 0.360239
v 0.350924 0.605196 0.448244
v 0.008693 0.018202 0.661378
v 0.815472 0.301086 0.881887
v 0.200603 0.122525 0.202613
v 0.069954 0.017395 0.345566
v 0.494521 0.572214 0.312524
v 0.761234 0.570071 0.582546
v 0.561325 0.296175 0.179999
v 0.732656 1.123383 0.714353
v 0.505760 1.569572 0.915939
v 0.382542 1.601745 0.819991
v 0.132248 0.125356 0.943102
v 0.767125 0.121742 0.194854
v 0.660837 1.594860 0.818274
v 0.528475 1.042389 0.341413
v 0.980465 0.127150 0.546395
v 0.212830 0.565020 0.544805
v 0.350670 0.184971 0.232946
v 0.642819 1.087965 0.771887
v 0.581868 0.562816 0.863410
v 0.775778 1.568992 0.724370
v 0.633880 0.606769 0.447732
v 0.296115 0.611184 0.622570
v 0.697239 0.193952 0.251568
v 0.162801 0.262524 0.904686
v 0.189452 0.185454 0.849291
v 0.340252 1.244701 0.488377
v 0.748948 1.572873 0.411515
v 0.396956 0.975952 0.462527
v 0.630433 0.980779 0.685693
v 0.267996 1.591201 0.775422
vn 0.0452 0.2299 -0.9722
vn 0.5435 -0.8285 -0.1348
vn 0.0021 -1.0000 0.0010
vn -0.0046 -1.0000 0.0044
vn -0.0233 0.9995 -0.0193
vn 0.6440 0.5921 -0.4845
vn -0.7657 0.1796 0.6176
vn -0.1576 0.7115 -0.6848
vn -0.0009 -1.0000 0.0045
vn -0.2408 -0.9452 -0.2207
vn 0.6370 0.5728 0.5159
vn 0.5184 0.3623 0.7746
vn -0.8826 0.3898 -0.2628
vn -0.4580 0.8390 -0.2939
vn 0.3715 0.6144 -0.6961
vn -0.6871 0.1475 0.7115
vn 0.9514 0.0673 -0.3006
vn 0.7063 -0.1151 -0.6985
vn -0.1157 -0.8389 0.5318
vn -0.9649 0.2624 -0.0100
vn 0.3205 0.5501 0.7712
vn 0.4612 0.8779 0.1285
vn 0.9860 -0.1161 -0.1193
vn 0.1119 0.1105 0.9876
vn 0.5594 0.8012 0.2123
vn 0.0845 -0.8944 0.4391
vn 0.3379 0.8149 -0.4710
vn -0.5598 -0.5188 -0.6461
vn -0.6445 0.7175 0.2643
vn 0.4675 -0.5923 -0.6562
vn 0.4833 -0.7299 -0.4835
vn -0.5183 -0.2820 -0.8074
vn 0.5394 0.7867 0.3003
vn 0.4235 0.8592 0.2870
vn 0.2744 0.9616 0.0025
vn -0.5811 -0.8038 0.1271
vn -0.5012 -0.7580 -0.4173
vn -0.1830 0.8747 0.4488
vn -0.2651 0.9634 0.0407
vn -0.8044 0.0034 0.5941
vn 0.6856 0.0707 -0.7246
vn 0.9867 -0.1103 -0.1193
vn 0.6381 0.7689 0.0405
vn 0.5534 -0.0954 0.8274
vn 0.0583 -0.6058 -0.7935
vn 0.4080 -0.3922 -0.8244
vn -0.3292 0.0039 -0.9442
vn 0.8121 0.5438 -0.2115
vn -0.5116 -0.6444 0.5683
vn 0.0252 0.6325 -0.7742
vn -0.6033 0.3406 -0.7211
vn -0.3695 0.6028 0.7072
vn 0.2194 -0.7859 -0.5781
vn -0.0405 0.9987 -0.0323
vn -0.9782 -0.2076 -0.0049
vn -0.6558 0.6927 0.3001
vn 0.6808 0.5782 0.4497
vn -0.4911 -0.8676 0.0777
vn 0.6846 0.6908 0.2326
vn -0.0010 0.2042 -0.9789
vn -0.0058 0.9703 -0.2420
vn 0.7675 -0.0851 0.6354
vn 0.9071 0.2540 0.3357
vn -0.9873 0.1581 -0.0140
vn 0.0891 0.8742 -0.4773
vn 0.4628 0.5984 -0.6540
vn 0.3364 0.4893 0.8046
vn 0.4035 0.1985 0.8932
vn -0.1388 -0.0545 0.9888
vn -0.2502 0.9651 -0.0770
vn 0.5413 -0.0908 0.8359
vn 0.0255 0.9572 0.2883
vn -0.0272 -0.9992 0.0295
vn 0.0852 0.1959 0.9769
vn 0.4047 0.1434 -0.9031
vn 0.9917 0.0103 0.1278
vn -0.3226 0.9069 -0.2709
vn -0.8804 -0.4428 -0.1697
vn -0.3702 0.9171 -0.1479
vn 0.9694 0.1381 -0.2030
vn -0.4319 -0.3987 -0.8090
vn 0.1651 -0.8007 -0.5759
vn -0.3850 -0.1731 -0.9065
vn 0.6504 -0.7564 -0.0703
vn -0.0934 0.7523 0.6522
vn -0.3959 -0.1120 0.9114
vn 0.8858 -0.3911 -0.2497
vn -0.3756 -0.6991 0.6085
vn -0.4734 -0.1545 0.8672
vn -0.9514 0.1826 0.2480
vn 0.0413 -0.1256 -0.9912
vn -0.6325 0.1344 -0.7628
vn -0.8583 -0.4835 -0.1718
vn -0.9507 0.1478 0.2728
vn -0.2690 0.2976 0.9160
vn 0.6844 -0.5665 0.4590
vn -0.3892 -0.5612 -0.7305
vn -0.0336 0.9096 -0.4142
vn -0.9377 0.0101 0.3473
vn 0.7052 -0.4663 -0.5342
vn -0.4063 -0.9136 0.0156
vn 0.4861 0.7691 -0.4151
vn -0.3213 -0.6234 0.7128
vn 0.5320 0.7778 -0.3348
vn 0.8737 -0.0432 0.4846
vn 0.4701 0.0071 -0.8826
vn -0.7638 -0.5295 0.3691
vn 0.9454 0.3255 -0.0174
vn -0.8285 0.0742 -0.5550
vn 0.8240 -0.2714 0.4974
vn 0.9982 -0.0256 0.0548
vn -0.6313 -0.2409 0.7372
vn -0.9726 0.0481 -0.2273
vn -0.6880 0.6685 0.2824
vn 0.5165 0.0598 -0.8542
vn 0.2579 -0.7753 0.5765
vn -0.4232 0.9013 0.0924
vn -0.8171 0.5633 -0.1225
vn -0.9149 0.2202 0.3384
vn -0.0020 0.0387 -0.9992
vn -0.5598 -0.3350 -0.7579
vn 0.1214 0.1174 -0.9856
vn 0.7007 0.1789 -0.6907
vn -0.4178 0.7054 -0.5726
vn 0.0202 -0.9998 0.0065
vn -0.5447 0.8166 0.1910
vn -0.8883 0.2421 0.3902
vn -0.3030 0.1130 -0.9463
vn 0.5937 -0.7949 0.1255
vn 0.8332 0.1377 0.5356
vn 0.0961 -0.9130 -0.3965
vn -0.1061 0.3496 0.9309
vn 0.4309 0.9020 -0.0258
vn -0.0383 0.9990 -0.0241
vn -0.0974 -0.0819 -0.9919
vn -0.9447 0.1289 -0.3015
vn -0.4033 0.1245 0.9066
vn 0.9580 0.2265 -0.1761
vn 0.1899 0.1564 0.9693
vn -0.0674 0.5954 -0.8006
vn 0.9918 -0.0940 -0.0862
vn 0.4602 -0.8685 0.1840
vn -0.1193 0.9149 0.3856
vn -0.6167 -0.0150 0.7870
vn -0.8888 -0.0649 0.4536
vn 0.0235 -0.9350 0.3539
vn 0.1018 -0.4762 -0.8734
vn 0.2813 -0.0119 0.9595
vn 0.4254 -0.1948 0.8838
vn -0.4662 0.0252 0.8843
vn 0.2792 -0.2430 0.9290
vn -0.5210 0.2997 0.7992
vn -0.4655 0.6747 -0.5728
vn 0.8242 0.2578 -0.5042
vn 0.0393 -0.9992 -0.0123
vn -0.8026 0.2847 -0.5242
vn 0.4408 0.2716 0.8555
vn 0.0486 0.8493 0.5256
vn -0.0371 0.9272 0.3727
vn 0.3900 0.0980 0.9156
usemtl None
s off
f 22//1 62//1 4//1
f 19//2 81//2 17//2
f 29//3 16//3 26//3
f 16//4 29//4 56//4
f 35//5 78//5 22//5
f 41//6 67//6 75//6
f 78//7 2//7 44//7
f 34//8 55//8 69//8
f 47//9 26//9 16//9
f 6//10 44//10 51//10
f 4//11 60//11 25//11
f 3//12 35//12 8//12
f 33//13 79//13 35//13
f 55//14 32//14 49//14
f 42//15 27//15 59//15
f 72//16 33//16 25//16
f 27//17 24//17 41//17
f 58//18 57//18 73//18
f 18//19 9//19 77//19
f 80//20 74//20 15//20
f 54//21 43//21 9//21
f 67//22 41//22 12//22
f 60//23 5//23 79//23
f 10//24 15//24 37//24
f 12//25 23//25 67//25
f 21//26 15//26 81//26
f 19//27 66//27 51//27
f 36//28 69//28 13//28
f 74//29 68//29 37//29
f 19//30 20//30 5//30
f 66//31 19//31 17//31
f 1//32 57//32 42//32
f 54//33 39//33 43//33
f 18//34 23//34 12//34
f 10//35 58//35 73//35
f 11//36 49//36 77//36
f 13//37 69//37 49//37
f 77//38 63//38 38//38
f 82//39 7//39 45//39
f 28//40 82//40 45//40
f 57//41 39//41 42//41
f 19//42 5//42 60//42
f 31//43 19//43 70//43
f 65//44 30//44 70//44
f 36//45 75//45 69//45
f 64//46 47//46 34//46
f 35//47 79//47 5//47
f 24//48 27//48 39//48
f 6//49 15//49 21//49
f 64//50 69//50 75//50
f 57//51 68//51 52//51
f 50//52 76//52 9//52
f 51//53 20//53 19//53
f 35//54 22//54 25//54
f 28//55 45//55 44//55
f 1//56 11//56 76//56
f 71//57 58//57 10//57
f 46//58 15//58 6//58
f 54//59 24//59 39//59
f 4//60 62//60 65//60
f 73//61 57//61 52//61
f 24//62 18//62 12//62
f 23//63 26//63 67//63
f 28//64 44//64 6//64
f 69//65 64//65 34//65
f 5//66 20//66 35//66
f 38//67 23//67 18//67
f 54//68 9//68 18//68
f 43//69 71//69 50//69
f 51//70 46//70 6//70
f 65//71 61//71 30//71
f 65//72 62//72 61//72
f 48//73 56//73 29//73
f 35//74 3//74 78//74
f 44//75 7//75 78//75
f 35//76 20//76 8//76
f 69//77 55//77 49//77
f 53//78 32//78 56//78
f 68//79 74//79 52//79
f 17//80 81//80 73//80
f 66//81 46//81 51//81
f 16//82 34//82 47//82
f 44//83 2//83 51//83
f 31//84 81//84 19//84
f 43//85 50//85 9//85
f 30//86 61//86 14//86
f 26//87 47//87 67//87
f 14//88 28//88 6//88
f 63//89 40//89 48//89
f 37//90 15//90 74//90
f 8//91 20//91 51//91
f 68//92 57//92 1//92
f 11//93 13//93 49//93
f 33//94 35//94 25//94
f 50//95 71//95 37//95
f 54//96 18//96 24//96
f 46//97 66//97 80//97
f 8//98 2//98 3//98
f 40//99 63//99 32//99
f 75//100 27//100 41//100
f 46//101 80//101 15//101
f 27//102 42//102 39//102
f 9//103 76//103 77//103
f 67//104 64//104 75//104
f 43//105 39//105 58//105
f 59//106 27//106 75//106
f 76//107 11//107 77//107
f 22//108 7//108 82//108
f 7//109 44//109 45//109
f 23//110 29//110 26//110
f 73//111 81//111 10//111
f 6//112 21//112 14//112
f 62//113 22//113 14//113
f 1//114 76//114 50//114
f 4//115 65//115 70//115
f 31//116 21//116 81//116
f 32//117 77//117 49//117
f 11//118 1//118 13//118
f 37//119 1//119 50//119
f 52//120 80//120 73//120
f 56//121 55//121 16//121
f 17//122 73//122 80//122
f 39//123 57//123 58//123
f 36//124 1//124 42//124
f 53//125 56//125 48//125
f 32//126 63//126 77//126
f 40//127 32//127 53//127
f 55//128 34//128 16//128
f 12//129 41//129 24//129
f 58//130 71//130 43//130
f 80//131 66//131 17//131
f 22//132 28//132 14//132
f 79//133 33//133 72//133
f 25//134 22//134 4//134
f 2//135 8//135 51//135
f 80//136 52//136 74//136
f 38//137 63//137 48//137
f 78//138 7//138 22//138
f 81//139 15//139 10//139
f 59//140 36//140 42//140
f 79//141 72//141 60//141
f 70//142 19//142 60//142
f 77//143 38//143 18//143
f 61//144 62//144 14//144
f 37//145 68//145 1//145
f 30//146 14//146 70//146
f 59//147 75//147 36//147
f 82//148 28//148 22//148
f 21//149 31//149 70//149
f 72//150 25//150 60//150
f 29//151 38//151 48//151
f 78//152 3//152 2//152
f 36//153 13//153 1//153
f 64//154 67//154 47//154
f 53//155 48//155 40//155
f 32//156 55//156 56//156
f 70//157 60//157 4//157
f 21//158 70//158 14//158
f 10//159 37//159 71//159
f 38//160 29//160 23//160
